<svg width="166" height="166" viewBox="0 0 166 166" fill="none" xmlns="http://www.w3.org/2000/svg">
<path d="M110.042 86.1384L141.891 86.1384C141.583 101.913 139.845 111.039 135.838 117.655C131.783 124.352 125.36 128.558 115.418 134.446L115.413 134.449C112.862 135.996 112.01 139.25 113.553 141.876C115.031 144.44 118.366 145.288 120.922 143.741C132.611 136.824 140.621 131.19 145.666 122.181C150.705 113.182 152.743 100.898 152.743 80.7869L152.743 43.5061C152.743 31.3576 142.868 21.5546 130.792 21.5546L110.042 21.5546C97.5485 21.5546 88.0901 31.013 88.0901 43.5061L88.0901 64.2561C88.0901 76.6812 97.5497 86.1384 110.042 86.1384Z" stroke="#33353E" stroke-width="1.15789"/>
<path d="M67.0563 86.1384C66.748 101.913 65.01 111.039 61.0035 117.655C56.9484 124.352 50.525 128.558 40.5834 134.446L40.5784 134.449C38.0261 135.996 37.1748 139.252 38.7194 141.878L38.7194 141.878L38.7233 141.884C40.2701 144.437 43.5261 145.288 46.152 143.743L46.1533 143.743C57.8447 136.825 65.8551 131.19 70.9006 122.172C75.9398 113.164 77.9774 100.863 77.9774 80.7178L77.9774 43.4369C77.9774 31.2885 68.1028 21.4855 56.0259 21.4855L35.2759 21.4855C22.7829 21.4855 13.3245 30.9439 13.3245 43.4369L13.3245 64.1836C13.3245 64.1841 13.3245 64.1845 13.3245 64.185C13.2542 76.6805 22.7147 86.1384 35.2068 86.1384L67.0563 86.1384Z" stroke="#33353E" stroke-width="1.15789"/>
</svg>
